<svg width="40" height="40" viewBox="0 0 40 40" fill="none" xmlns="http://www.w3.org/2000/svg">
<g id="tabler-icon-moon-filled">
<path id="Vector" d="M20 3.31891C16.9828 3.31946 14.0224 4.13903 11.4345 5.69018C8.84666 7.24133 6.72838 9.46589 5.30567 12.1265C3.88296 14.7872 3.20917 17.7842 3.3562 20.7977C3.50322 23.8113 4.46554 26.7284 6.14049 29.238C7.81545 31.7475 10.1402 33.7553 12.8668 35.0472C15.5934 36.339 18.6195 36.8665 21.6224 36.5734C24.6253 36.2802 27.4923 35.1774 29.9175 33.3826C32.3428 31.5878 34.2354 29.1683 35.3933 26.3822C35.9617 25.0156 34.6 23.6422 33.23 24.1989C30.882 25.15 28.2748 25.2482 25.8619 24.4763C23.449 23.7044 21.3829 22.1113 20.0229 19.9739C18.6629 17.8366 18.0949 15.2902 18.4177 12.7775C18.7406 10.2648 19.9338 7.94468 21.79 6.22058L21.9183 6.08724C22.8367 5.03724 22.1067 3.33224 20.655 3.33224H20.2117L20.0983 3.32224L19.9983 3.31891H20Z" fill="white"/>
</g>
</svg>
