<svg width="40" height="40" viewBox="0 0 40 40" fill="none" xmlns="http://www.w3.org/2000/svg">
<g id="tabler-icon-sun-filled">
<g id="Vector">
<path d="M20 31.6666C20.4082 31.6667 20.8022 31.8166 21.1073 32.0878C21.4124 32.3591 21.6073 32.7329 21.655 33.1383L21.6667 33.3333V35C21.6662 35.4248 21.5035 35.8334 21.2119 36.1423C20.9203 36.4512 20.5218 36.637 20.0977 36.6619C19.6736 36.6868 19.256 36.5489 18.9303 36.2762C18.6045 36.0036 18.3952 35.6168 18.345 35.195L18.3333 35V33.3333C18.3333 32.8913 18.5089 32.4674 18.8215 32.1548C19.1341 31.8422 19.558 31.6666 20 31.6666Z" fill="white"/>
<path d="M30.5217 28.1833L30.6784 28.3217L31.845 29.4883C32.1439 29.7883 32.3175 30.1907 32.3304 30.614C32.3433 31.0372 32.1947 31.4495 31.9146 31.7671C31.6345 32.0847 31.2441 32.2838 30.8226 32.324C30.401 32.3641 29.98 32.2423 29.645 31.9833L29.4884 31.845L28.3217 30.6783C28.0341 30.3912 27.8613 30.0089 27.8358 29.6033C27.8103 29.1977 27.9339 28.7968 28.1833 28.476C28.4327 28.1551 28.7907 27.9364 29.19 27.861C29.5894 27.7857 30.0025 27.8588 30.3517 28.0667L30.5217 28.1833Z" fill="white"/>
<path d="M11.6783 28.3216C11.9653 28.6086 12.1377 28.9904 12.1632 29.3955C12.1886 29.8005 12.0654 30.2009 11.8167 30.5216L11.6783 30.6783L10.5117 31.8449C10.2117 32.1439 9.80929 32.3174 9.38604 32.3303C8.96279 32.3433 8.55049 32.1946 8.23288 31.9145C7.91527 31.6345 7.71617 31.244 7.67601 30.8225C7.63586 30.401 7.75766 29.9799 8.01668 29.6449L8.15501 29.4883L9.32168 28.3216C9.63422 28.0092 10.0581 27.8336 10.5 27.8336C10.942 27.8336 11.3658 28.0092 11.6783 28.3216Z" fill="white"/>
<path d="M6.66669 18.3333C7.09149 18.3338 7.50008 18.4964 7.80897 18.7881C8.11787 19.0797 8.30375 19.4782 8.32864 19.9023C8.35354 20.3264 8.21557 20.7439 7.94292 21.0697C7.67027 21.3955 7.28352 21.6048 6.86169 21.655L6.66669 21.6666H5.00003C4.57523 21.6662 4.16664 21.5035 3.85774 21.2119C3.54885 20.9203 3.36297 20.5217 3.33807 20.0977C3.31318 19.6736 3.45115 19.256 3.7238 18.9303C3.99645 18.6045 4.3832 18.3952 4.80503 18.345L5.00003 18.3333H6.66669Z" fill="white"/>
<path d="M35 18.3333C35.4248 18.3338 35.8334 18.4964 36.1423 18.7881C36.4512 19.0797 36.6371 19.4782 36.662 19.9023C36.6869 20.3264 36.5489 20.7439 36.2763 21.0697C36.0036 21.3955 35.6169 21.6048 35.195 21.655L35 21.6666H33.3334C32.9086 21.6662 32.5 21.5035 32.1911 21.2119C31.8822 20.9203 31.6963 20.5217 31.6714 20.0977C31.6465 19.6736 31.7845 19.256 32.0571 18.9303C32.3298 18.6045 32.7165 18.3952 33.1384 18.345L33.3334 18.3333H35Z" fill="white"/>
<path d="M10.355 8.0166L10.5117 8.15494L11.6784 9.3216C11.9773 9.62153 12.1508 10.024 12.1637 10.4472C12.1767 10.8705 12.028 11.2828 11.7479 11.6004C11.4679 11.918 11.0774 12.1171 10.6559 12.1573C10.2344 12.1974 9.81334 12.0756 9.47836 11.8166L9.32169 11.6783L8.15502 10.5116C7.86851 10.2244 7.69658 9.84256 7.67147 9.43766C7.64636 9.03275 7.76979 8.63259 8.01863 8.31219C8.26746 7.99179 8.62462 7.77315 9.02314 7.69726C9.42165 7.62136 9.83417 7.69342 10.1834 7.89994L10.355 8.0166Z" fill="white"/>
<path d="M31.845 8.15499C32.132 8.44198 32.3044 8.82381 32.3298 9.22885C32.3553 9.6339 32.2321 10.0343 31.9834 10.355L31.845 10.5117L30.6784 11.6783C30.3784 11.9772 29.976 12.1508 29.5527 12.1637C29.1295 12.1766 28.7172 12.028 28.3996 11.7479C28.0819 11.4679 27.8828 11.0774 27.8427 10.6559C27.8025 10.2343 27.9243 9.81331 28.1834 9.47832L28.3217 9.32166L29.4884 8.15499C29.8009 7.84254 30.2247 7.66701 30.6667 7.66701C31.1086 7.66701 31.5325 7.84254 31.845 8.15499Z" fill="white"/>
<path d="M20 3.33331C20.4082 3.33337 20.8022 3.48324 21.1073 3.75451C21.4124 4.02577 21.6073 4.39956 21.655 4.80498L21.6667 4.99998V6.66665C21.6662 7.09145 21.5035 7.50003 21.2119 7.80893C20.9203 8.11782 20.5218 8.3037 20.0977 8.3286C19.6736 8.35349 19.256 8.21552 18.9303 7.94287C18.6045 7.67022 18.3952 7.28347 18.345 6.86165L18.3333 6.66665V4.99998C18.3333 4.55795 18.5089 4.13403 18.8215 3.82147C19.1341 3.50891 19.558 3.33331 20 3.33331Z" fill="white"/>
<path d="M20 11.6666C21.6328 11.6666 23.2297 12.1461 24.5922 13.0458C25.9548 13.9455 27.023 15.2256 27.6643 16.7272C28.3055 18.2289 28.4915 19.8858 28.1991 21.4922C27.9068 23.0986 27.1489 24.5837 26.0197 25.7631C24.8905 26.9425 23.4398 27.7641 21.8476 28.126C20.2554 28.4879 18.592 28.3741 17.0639 27.7988C15.5359 27.2234 14.2105 26.2118 13.2524 24.8896C12.2944 23.5674 11.7459 21.9929 11.675 20.3616L11.6667 20L11.675 19.6383C11.7682 17.4929 12.686 15.4663 14.2371 13.9811C15.7881 12.4959 17.8526 11.6668 20 11.6666Z" fill="white"/>
<path d="M20 31.6666C20.4082 31.6667 20.8022 31.8166 21.1073 32.0878C21.4124 32.3591 21.6073 32.7329 21.655 33.1383L21.6667 33.3333V35C21.6662 35.4248 21.5035 35.8334 21.2119 36.1423C20.9203 36.4512 20.5218 36.637 20.0977 36.6619C19.6736 36.6868 19.256 36.5489 18.9303 36.2762C18.6045 36.0036 18.3952 35.6168 18.345 35.195L18.3333 35V33.3333C18.3333 32.8913 18.5089 32.4674 18.8215 32.1548C19.1341 31.8422 19.558 31.6666 20 31.6666Z" stroke="white"/>
<path d="M30.5217 28.1833L30.6784 28.3217L31.845 29.4883C32.1439 29.7883 32.3175 30.1907 32.3304 30.614C32.3433 31.0372 32.1947 31.4495 31.9146 31.7671C31.6345 32.0847 31.2441 32.2838 30.8226 32.324C30.401 32.3641 29.98 32.2423 29.645 31.9833L29.4884 31.845L28.3217 30.6783C28.0341 30.3912 27.8613 30.0089 27.8358 29.6033C27.8103 29.1977 27.9339 28.7968 28.1833 28.476C28.4327 28.1551 28.7907 27.9364 29.19 27.861C29.5894 27.7857 30.0025 27.8588 30.3517 28.0667L30.5217 28.1833Z" stroke="white"/>
<path d="M11.6783 28.3216C11.9653 28.6086 12.1377 28.9904 12.1632 29.3955C12.1886 29.8005 12.0654 30.2009 11.8167 30.5216L11.6783 30.6783L10.5117 31.8449C10.2117 32.1439 9.80929 32.3174 9.38604 32.3303C8.96279 32.3433 8.55049 32.1946 8.23288 31.9145C7.91527 31.6345 7.71617 31.244 7.67601 30.8225C7.63586 30.401 7.75766 29.9799 8.01668 29.6449L8.15501 29.4883L9.32168 28.3216C9.63422 28.0092 10.0581 27.8336 10.5 27.8336C10.942 27.8336 11.3658 28.0092 11.6783 28.3216Z" stroke="white"/>
<path d="M6.66669 18.3333C7.09149 18.3338 7.50008 18.4964 7.80897 18.7881C8.11787 19.0797 8.30375 19.4782 8.32864 19.9023C8.35354 20.3264 8.21557 20.7439 7.94292 21.0697C7.67027 21.3955 7.28352 21.6048 6.86169 21.655L6.66669 21.6666H5.00003C4.57523 21.6662 4.16664 21.5035 3.85774 21.2119C3.54885 20.9203 3.36297 20.5217 3.33807 20.0977C3.31318 19.6736 3.45115 19.256 3.7238 18.9303C3.99645 18.6045 4.3832 18.3952 4.80503 18.345L5.00003 18.3333H6.66669Z" stroke="white"/>
<path d="M35 18.3333C35.4248 18.3338 35.8334 18.4964 36.1423 18.7881C36.4512 19.0797 36.6371 19.4782 36.662 19.9023C36.6869 20.3264 36.5489 20.7439 36.2763 21.0697C36.0036 21.3955 35.6169 21.6048 35.195 21.655L35 21.6666H33.3334C32.9086 21.6662 32.5 21.5035 32.1911 21.2119C31.8822 20.9203 31.6963 20.5217 31.6714 20.0977C31.6465 19.6736 31.7845 19.256 32.0571 18.9303C32.3298 18.6045 32.7165 18.3952 33.1384 18.345L33.3334 18.3333H35Z" stroke="white"/>
<path d="M10.355 8.0166L10.5117 8.15494L11.6784 9.3216C11.9773 9.62153 12.1508 10.024 12.1637 10.4472C12.1767 10.8705 12.028 11.2828 11.7479 11.6004C11.4679 11.918 11.0774 12.1171 10.6559 12.1573C10.2344 12.1974 9.81334 12.0756 9.47836 11.8166L9.32169 11.6783L8.15502 10.5116C7.86851 10.2244 7.69658 9.84256 7.67147 9.43766C7.64636 9.03275 7.76979 8.63259 8.01863 8.31219C8.26746 7.99179 8.62462 7.77315 9.02314 7.69726C9.42165 7.62136 9.83417 7.69342 10.1834 7.89994L10.355 8.0166Z" stroke="white"/>
<path d="M31.845 8.15499C32.132 8.44198 32.3044 8.82381 32.3298 9.22885C32.3553 9.6339 32.2321 10.0343 31.9834 10.355L31.845 10.5117L30.6784 11.6783C30.3784 11.9772 29.976 12.1508 29.5527 12.1637C29.1295 12.1766 28.7172 12.028 28.3996 11.7479C28.0819 11.4679 27.8828 11.0774 27.8427 10.6559C27.8025 10.2343 27.9243 9.81331 28.1834 9.47832L28.3217 9.32166L29.4884 8.15499C29.8009 7.84254 30.2247 7.66701 30.6667 7.66701C31.1086 7.66701 31.5325 7.84254 31.845 8.15499Z" stroke="white"/>
<path d="M20 3.33331C20.4082 3.33337 20.8022 3.48324 21.1073 3.75451C21.4124 4.02577 21.6073 4.39956 21.655 4.80498L21.6667 4.99998V6.66665C21.6662 7.09145 21.5035 7.50003 21.2119 7.80893C20.9203 8.11782 20.5218 8.3037 20.0977 8.3286C19.6736 8.35349 19.256 8.21552 18.9303 7.94287C18.6045 7.67022 18.3952 7.28347 18.345 6.86165L18.3333 6.66665V4.99998C18.3333 4.55795 18.5089 4.13403 18.8215 3.82147C19.1341 3.50891 19.558 3.33331 20 3.33331Z" stroke="white"/>
<path d="M20 11.6666C21.6328 11.6666 23.2297 12.1461 24.5922 13.0458C25.9548 13.9455 27.023 15.2256 27.6643 16.7272C28.3055 18.2289 28.4915 19.8858 28.1991 21.4922C27.9068 23.0986 27.1489 24.5837 26.0197 25.7631C24.8905 26.9425 23.4398 27.7641 21.8476 28.126C20.2554 28.4879 18.592 28.3741 17.0639 27.7988C15.5359 27.2234 14.2105 26.2118 13.2524 24.8896C12.2944 23.5674 11.7459 21.9929 11.675 20.3616L11.6667 20L11.675 19.6383C11.7682 17.4929 12.686 15.4663 14.2371 13.9811C15.7881 12.4959 17.8526 11.6668 20 11.6666Z" stroke="white"/>
</g>
</g>
</svg>
