<svg width="40" height="40" viewBox="0 0 40 40" fill="none" xmlns="http://www.w3.org/2000/svg">
<g id="tabler-icon-star-filled">
<path id="Vector" d="M13.7383 12.2322L3.10498 13.7739L2.91664 13.8122C2.63154 13.8879 2.37163 14.0379 2.16346 14.2469C1.95529 14.4559 1.80632 14.7164 1.73175 15.0018C1.65718 15.2872 1.65969 15.5872 1.73902 15.8713C1.81836 16.1555 1.97167 16.4134 2.18331 16.6189L9.88664 24.1172L8.06998 34.7089L8.04831 34.8922C8.03086 35.1871 8.09209 35.4813 8.22573 35.7447C8.35937 36.0082 8.56062 36.2313 8.80887 36.3914C9.05712 36.5515 9.34346 36.6427 9.63856 36.6557C9.93366 36.6688 10.2269 36.6031 10.4883 36.4656L19.9983 31.4656L29.4866 36.4656L29.6533 36.5422C29.9284 36.6506 30.2274 36.6838 30.5196 36.6385C30.8118 36.5932 31.0866 36.4709 31.316 36.2843C31.5453 36.0977 31.7209 35.8535 31.8247 35.5766C31.9285 35.2998 31.9568 35.0003 31.9066 34.7089L30.0883 24.1172L37.795 16.6172L37.925 16.4756C38.1107 16.2468 38.2324 15.973 38.2778 15.6819C38.3233 15.3908 38.2907 15.0929 38.1835 14.8184C38.0762 14.544 37.8982 14.3029 37.6675 14.1197C37.4367 13.9366 37.1616 13.8178 36.87 13.7756L26.2366 12.2322L21.4833 2.59889C21.3458 2.31979 21.1328 2.08475 20.8686 1.9204C20.6044 1.75605 20.2995 1.66895 19.9883 1.66895C19.6772 1.66895 19.3722 1.75605 19.108 1.9204C18.8438 2.08475 18.6309 2.31979 18.4933 2.59889L13.7383 12.2322Z" fill="white"/>
</g>
</svg>
